<?xml version="1.0" encoding="UTF-8"?>
<!DOCTYPE svg PUBLIC "-//W3C//DTD SVG 1.1//EN" "http://www.w3.org/Graphics/SVG/1.1/DTD/svg11.dtd">
<!-- Creator: CorelDRAW X8 -->
<svg xmlns="http://www.w3.org/2000/svg" xml:space="preserve" width="2.207in" height="0.5435in" version="1.1" style="shape-rendering:geometricPrecision; text-rendering:geometricPrecision; image-rendering:optimizeQuality; fill-rule:evenodd; clip-rule:evenodd"
viewBox="0 0 2207 543"
 xmlns:xlink="http://www.w3.org/1999/xlink">
 <defs>
  <style type="text/css">
   <![CDATA[
    .fil4 {fill:none}
    .fil2 {fill:#292F3C}
    .fil3 {fill:#6FBE4F}
    .fil1 {fill:#292F3C;fill-rule:nonzero}
    .fil0 {fill:#6FBE4F;fill-rule:nonzero}
   ]]>
  </style>
 </defs>
 <g id="Layer_x0020_1">
  <metadata id="CorelCorpID_0Corel-Layer"/>
  <g id="_375677974688">
   <g>
    <g>
     <path class="fil0" d="M884 188l0 95c-14,7 -27,12 -39,16 -13,3 -25,4 -37,4 -30,0 -55,-10 -74,-29 -20,-20 -30,-46 -30,-76 0,-30 10,-55 30,-75 20,-20 46,-31 77,-31 11,0 22,3 33,6 10,3 20,7 30,14l-5 49c-9,-9 -18,-16 -28,-20 -9,-4 -18,-6 -28,-6 -18,0 -33,6 -44,17 -12,12 -17,27 -17,45 0,18 5,34 16,46 12,12 26,17 43,17 5,0 9,0 13,-1 4,0 8,-1 13,-3l0 -28 -37 0 0 -40 84 0 0 0zm21 109l0 -198 47 0 0 73 76 0 0 -73 46 0 0 198 -46 0 0 -83 -76 0 0 83 -47 0zm240 -63l51 0 -25 -62 -26 62 0 0zm-74 63l100 -204 3 0 99 204 -50 0 -12 -29 -80 0 -12 29 -48 0 0 0zm199 0l0 -198 47 0 0 156 77 0 0 42 -124 0 0 0zm129 0l0 -198 48 0 0 156 77 0 0 42 -125 0 0 0zm131 0l0 -198 47 0 0 198 -47 0zm112 -99c0,18 4,32 15,43 10,11 22,18 37,18 14,0 27,-6 37,-18 10,-11 15,-25 15,-43 0,-17 -5,-32 -15,-43 -10,-12 -23,-17 -37,-17 -15,0 -27,5 -37,17 -11,11 -15,26 -15,43zm-49 0c0,-14 3,-28 7,-41 5,-12 13,-24 23,-34 9,-9 19,-17 32,-22 12,-6 25,-8 39,-8 13,0 26,2 38,8 12,5 24,13 33,22 10,10 17,21 22,34 5,12 7,26 7,41 0,12 -1,24 -5,35 -3,11 -8,21 -15,30 -10,13 -22,23 -36,30 -14,7 -28,10 -44,10 -14,0 -27,-2 -39,-7 -12,-6 -23,-13 -32,-23 -10,-10 -18,-21 -23,-34 -4,-13 -7,-27 -7,-41l0 0zm216 99l0 -204 5 0 123 115 0 -109 44 0 0 206 -5 0 -123 -116 0 108 -44 0zm181 0l98 -156 -88 0 8 -42 156 0 -98 156 98 0 -7 42 -167 0z"/>
     <path class="fil1" d="M937 414l-22 0 0 8 13 0 0 20c-1,1 -6,1 -11,1 -16,0 -26,-9 -26,-27 0,-17 10,-28 27,-28 7,0 11,2 15,3l2 -6c-3,-2 -9,-3 -17,-3 -23,0 -36,14 -37,34 0,11 4,20 10,26 6,6 15,9 25,9 9,0 17,-2 21,-4l0 -33zm23 36l38 0 0 -7 -30 0 0 -61 -8 0 0 68zm81 -69c-19,0 -32,14 -32,36 0,20 12,34 30,34 18,0 32,-12 32,-35 0,-21 -12,-35 -30,-35zm-1 7c15,0 22,14 22,28 0,15 -8,28 -22,28 -14,0 -22,-13 -22,-28 0,-15 8,-28 22,-28zm52 62c3,0 8,1 14,1 11,0 19,-2 23,-7 4,-3 6,-7 6,-13 0,-10 -7,-15 -14,-17l0 -1c7,-2 11,-8 11,-15 0,-5 -1,-9 -5,-12 -5,-3 -10,-4 -19,-4 -6,0 -12,0 -16,1l0 67 0 0zm8 -61c2,-1 4,-1 9,-1 9,0 15,3 15,12 0,6 -6,11 -15,11l-9 0 0 -22zm0 29l8 0c10,0 17,4 17,13 0,9 -8,13 -17,13 -3,0 -5,0 -8,-1l0 -25zm91 11l8 21 9 0 -23 -68 -11 0 -23 68 9 0 7 -21 24 0zm-22 -7l7 -20c1,-4 2,-8 3,-12l0 0c1,4 2,7 4,12l6 20 -20 0zm58 28l38 0 0 -7 -29 0 0 -61 -9 0 0 68zm76 -3c3,3 10,4 17,4 16,0 23,-9 23,-20 0,-9 -6,-15 -17,-19 -9,-4 -13,-7 -13,-14 0,-4 3,-10 12,-10 6,0 11,2 13,3l3 -7c-3,-2 -8,-3 -15,-3 -13,0 -23,7 -23,19 0,9 8,15 19,19 9,3 12,7 12,13 0,7 -5,12 -14,12 -6,0 -11,-2 -16,-4l-1 7zm97 -36l-26 0 0 -22 28 0 0 -7 -37 0 0 68 38 0 0 -7 -29 0 0 -24 26 0 0 -8 0 0zm24 39l9 0 0 -29 8 0c8,0 12,4 14,13 2,9 3,14 5,16l9 0c-2,-3 -3,-9 -5,-19 -2,-6 -6,-12 -11,-13l0 -1c8,-2 13,-8 13,-17 0,-6 -2,-10 -5,-13 -4,-4 -10,-5 -20,-5 -6,0 -12,0 -17,1l0 67 0 0zm9 -61c1,-1 4,-1 9,-1 9,0 15,4 15,13 0,8 -6,13 -15,13l-9 0 0 -25zm81 61l24 -68 -9 0 -11 34c-3,9 -6,17 -8,25l0 0c-2,-8 -5,-16 -8,-25l-11 -34 -9 0 22 68 10 0zm41 -68l0 68 9 0 0 -68 -9 0zm80 59c-4,2 -9,3 -15,3 -17,0 -26,-11 -26,-28 0,-18 11,-28 27,-28 6,0 10,1 13,3l2 -7c-2,-2 -7,-3 -15,-3 -22,0 -37,14 -37,36 0,22 15,34 34,34 9,0 15,-1 18,-3l-1 -7zm57 -30l-27 0 0 -22 29 0 0 -7 -37 0 0 68 38 0 0 -7 -30 0 0 -24 27 0 0 -8 0 0zm20 36c4,3 11,4 18,4 16,0 23,-9 23,-20 0,-9 -6,-15 -17,-19 -9,-4 -14,-7 -14,-14 0,-4 4,-10 13,-10 6,0 11,2 13,3l3 -7c-3,-2 -8,-3 -15,-3 -14,0 -23,7 -23,19 0,9 7,15 19,19 9,3 12,7 12,13 0,7 -5,12 -14,12 -6,0 -11,-2 -16,-4l-2 7zm84 3l38 0 0 -7 -29 0 0 -61 -9 0 0 68zm62 0l9 0 0 -61 20 0 0 -7 -51 0 0 7 22 0 0 61 0 0zm46 0c4,0 9,1 16,1 13,0 24,-4 30,-10 6,-7 10,-16 10,-26 0,-12 -4,-20 -10,-25 -6,-5 -15,-8 -28,-8 -6,0 -12,0 -18,1l0 67 0 0zm9 -61c2,0 6,-1 10,-1 19,0 28,11 28,27 0,18 -10,28 -29,28 -3,0 -7,0 -9,0l0 -54 0 0zm68 62c3,0 6,-2 6,-6 0,-4 -3,-6 -6,-6 -3,0 -6,2 -6,6 0,4 3,6 6,6z"/>
    </g>
    <g>
     <path class="fil2" d="M180 126c-15,-65 90,-97 145,-85 -49,5 -113,31 -145,85zm109 -92l25 0c19,0 39,3 58,6 46,8 74,11 114,36 37,23 78,73 78,130l-117 1c0,0 -2,-12 -9,-24 -24,-43 -100,-47 -134,-23 -14,9 -23,18 -31,32 -8,14 -14,29 -16,47 -5,31 -9,46 3,62 13,19 99,86 111,93 31,17 83,8 89,-47l-82 0c0,-30 -2,-61 -2,-92l196 0 0 236 84 23c-155,0 -481,-184 -504,-351 -6,-45 10,-79 38,-99 32,-21 64,-29 99,-30l0 0z"/>
     <path class="fil3" d="M316 26c-39,0 -97,9 -121,24 -6,4 -17,11 -22,16 -18,17 -32,46 -32,75 -1,60 45,128 86,168 6,7 11,11 17,18 25,24 73,63 103,81 73,43 75,48 167,84 23,9 85,27 115,27 -18,25 -126,0 -152,-6 -44,-12 -34,-15 -74,-3 -111,34 -241,-49 -262,-161l92 70c2,1 -43,-45 -60,-62 -62,-65 -166,-164 -118,-263 4,-7 6,-11 10,-16 57,-75 168,-72 251,-52l0 0z"/>
    </g>
   </g>
   <rect class="fil4" width="2207" height="543"/>
  </g>
 </g>
</svg>
