<?xml version="1.0" encoding="UTF-8"?>
<!DOCTYPE svg PUBLIC "-//W3C//DTD SVG 1.1//EN" "http://www.w3.org/Graphics/SVG/1.1/DTD/svg11.dtd">
<!-- Creator: CorelDRAW X8 -->
<svg xmlns="http://www.w3.org/2000/svg" xml:space="preserve" width="2.207in" height="0.544in" version="1.1" style="shape-rendering:geometricPrecision; text-rendering:geometricPrecision; image-rendering:optimizeQuality; fill-rule:evenodd; clip-rule:evenodd"
viewBox="0 0 2006 494"
 xmlns:xlink="http://www.w3.org/1999/xlink">
 <defs>
  <style type="text/css">
   <![CDATA[
    .fil0 {fill:none}
    .fil2 {fill:#6FBE4F}
    .fil1 {fill:#FEFEFE}
    .fil3 {fill:#6FBE4F;fill-rule:nonzero}
    .fil4 {fill:#FEFEFE;fill-rule:nonzero}
   ]]>
  </style>
 </defs>
 <g id="Layer_x0020_1">
  <metadata id="CorelCorpID_0Corel-Layer"/>
  <rect class="fil0" width="2006" height="494"/>
  <g id="_734034351360">
   <g>
    <path class="fil1" d="M165 113c-14,-57 80,-87 131,-76 -45,6 -102,28 -131,76zm100 -81l20 0c17,0 36,3 55,5 40,6 67,11 102,33 35,21 71,67 71,118l-106 0c0,0 -3,-11 -8,-21 -22,-41 -92,-43 -124,-22 -10,9 -19,17 -27,30 -8,13 -13,27 -13,43 -6,30 -9,40 2,57 14,16 89,78 100,83 29,16 76,8 81,-43l-73 0c0,-27 -2,-54 -2,-83l178 0 0 215 75 22c-141,0 -437,-167 -456,-321 -8,-41 8,-73 35,-89 27,-19 57,-27 90,-27l0 0 0 0z"/>
    <path class="fil2" d="M288 24c-34,0 -89,8 -110,21 -5,3 -16,11 -22,17 -16,13 -30,40 -30,67 0,54 44,116 79,154 8,5 10,8 16,13 24,25 67,59 94,76 68,38 68,43 151,75 22,8 78,27 106,27 -17,20 -114,-2 -138,-8 -40,-11 -32,-13 -68,-2 -99,32 -218,-43 -240,-146l87 62c0,3 -40,-40 -57,-54 -53,-60 -151,-151 -105,-240 3,-5 5,-11 8,-13 51,-70 154,-68 229,-49l0 0 0 0z"/>
   </g>
   <g>
    <path class="fil3" d="M802 169l0 89c-11,6 -22,11 -32,14 -14,3 -25,5 -36,5 -27,0 -50,-11 -67,-27 -19,-19 -27,-44 -27,-70 0,-27 8,-52 27,-67 19,-19 40,-28 70,-28 11,0 19,0 30,3 10,3 18,8 27,14l-6 45c-8,-8 -15,-16 -24,-19 -8,-5 -16,-5 -24,-5 -16,0 -30,5 -41,16 -10,11 -15,25 -15,41 0,16 5,29 15,40 8,11 22,16 38,16 6,0 8,0 11,0 6,0 8,-2 14,-2l0 -28 -36 0 0 -37 76 0 0 0 0 0zm22 100l0 -178 40 0 0 64 70 0 0 -64 43 0 0 178 -43 0 0 -73 -70 0 0 73 -40 0zm218 -57l46 0 -24 -54 -22 54 0 0 0 0zm-68 57l90 -184 2 0 92 184 -46 0 -10 -24 -74 0 -10 24 -44 0 0 0 0 0zm181 0l0 -178 43 0 0 140 68 0 0 38 -111 0 0 0 0 0zm117 0l0 -178 42 0 0 140 70 0 0 38 -112 0 0 0 0 0zm118 0l0 -178 43 0 0 178 -43 0zm103 -89c0,16 2,29 13,40 8,11 19,16 32,16 14,0 27,-5 35,-16 9,-11 14,-24 14,-40 0,-16 -5,-27 -14,-41 -8,-8 -21,-14 -35,-14 -13,0 -24,6 -32,14 -11,14 -13,25 -13,41zm-44 0c0,-14 0,-25 5,-38 6,-11 11,-21 22,-29 8,-11 17,-17 27,-22 14,-3 25,-6 35,-6 14,0 25,3 35,6 14,5 22,14 30,22 11,8 16,18 21,29 6,13 6,24 6,38 0,11 0,22 -3,32 -3,11 -8,19 -15,27 -9,11 -19,22 -33,27 -11,6 -25,11 -41,11 -10,0 -21,-2 -35,-8 -10,-5 -19,-11 -27,-22 -11,-8 -16,-19 -22,-30 -5,-11 -5,-23 -5,-37l0 0 0 0zm194 89l0 -184 6 0 111 106 0 -100 40 0 0 186 -3 0 -113 -105 0 97 -41 0zm165 0l89 -141 -78 0 5 -37 143 0 -89 140 89 0 -8 38 -151 0z"/>
    <path class="fil4" d="M691 376l-21 0 0 8 11 0 0 17c0,3 -6,3 -8,3 -17,0 -25,-11 -25,-25 0,-15 8,-26 25,-26 5,0 11,2 13,2l3 -5c-3,0 -8,-3 -16,-3 -22,0 -33,14 -33,32 0,8 3,16 8,22 6,5 14,8 22,8 8,0 16,0 21,-3l0 -30zm19 33l35 0 0 -5 -27 0 0 -57 -8 0 0 62zm73 -62c-16,0 -27,14 -27,32 0,19 11,30 27,30 16,0 30,-11 30,-33 0,-15 -11,-29 -30,-29zm0 6c13,0 21,13 21,26 0,14 -8,25 -21,25 -10,0 -19,-11 -19,-25 0,-13 6,-26 19,-26zm49 56c2,0 5,0 11,0 11,0 18,0 21,-5 2,-3 5,-6 5,-11 0,-11 -5,-17 -13,-17l0 0c8,-2 10,-7 10,-12 0,-6 0,-9 -5,-11 -3,-3 -7,-6 -16,-6 -5,0 -11,0 -13,0l0 62 0 0 0 0zm8 -56c0,0 3,0 5,0 9,0 13,2 13,11 0,5 -4,10 -13,10l-5 0 0 -21zm0 26l5 0c9,0 16,3 16,14 0,8 -7,11 -16,11 -2,0 -5,0 -5,0l0 -25zm81 11l8 19 8 0 -22 -62 -11 0 -19 62 9 0 5 -19 22 0zm-19 -6l5 -18c0,-5 3,-8 3,-11l0 0c0,3 3,6 3,11l8 18 -19 0zm51 25l35 0 0 -5 -27 0 0 -57 -8 0 0 62zm71 -3c2,3 7,3 15,3 14,0 19,-8 19,-16 0,-9 -3,-14 -14,-19 -8,-2 -13,-5 -13,-10 0,-6 3,-11 11,-11 8,0 11,2 13,2l3 -5c-3,-3 -8,-3 -14,-3 -13,0 -20,6 -20,17 0,8 4,12 15,18 8,2 11,5 11,11 0,5 -3,11 -11,11 -8,0 -11,-3 -15,-6l0 8zm88 -32l-24 0 0 -19 24 0 0 -8 -32 0 0 62 34 0 0 -5 -26 0 0 -25 24 0 0 -5 0 0 0 0zm21 35l9 0 0 -27 5 0c8,0 11,5 14,13 2,6 2,11 5,14l8 0c-2,-3 -2,-8 -5,-16 -3,-9 -6,-11 -8,-14l0 0c5,-3 11,-7 11,-15 0,-6 -3,-9 -6,-11 -3,-3 -8,-6 -19,-6 -5,0 -11,0 -14,0l0 62 0 0 0 0zm9 -54c0,-2 2,-2 5,-2 11,0 16,5 16,11 0,8 -5,12 -16,12l-5 0 0 -21zm72 54l22 -62 -8 0 -11 32c-3,8 -5,14 -8,22l0 0c0,-8 -3,-14 -6,-22l-10 -32 -8 0 21 62 8 0zm39 -62l0 62 8 0 0 -62 -8 0zm72 54c-5,3 -8,3 -13,3 -17,0 -25,-11 -25,-25 0,-15 8,-26 25,-26 5,0 8,2 11,2l2 -5c-2,-3 -5,-3 -13,-3 -19,0 -33,14 -33,32 0,19 14,30 30,30 8,0 14,0 16,-3l0 -5zm51 -27l-23 0 0 -19 23 0 0 -8 -32 0 0 62 35 0 0 -5 -26 0 0 -25 23 0 0 -5 0 0 0 0zm19 32c3,3 8,3 17,3 13,0 21,-8 21,-16 0,-9 -5,-14 -16,-19 -8,-2 -14,-5 -14,-10 0,-6 3,-11 11,-11 9,0 11,2 14,2l3 -5c-3,-3 -8,-3 -14,-3 -14,0 -22,6 -22,17 0,8 8,12 17,18 8,2 13,5 13,11 0,5 -5,11 -13,11 -6,0 -11,-3 -14,-6l-3 8zm76 3l35 0 0 -5 -27 0 0 -57 -8 0 0 62zm57 0l7 0 0 -54 19 0 0 -8 -45 0 0 8 19 0 0 54 0 0 0 0zm40 0c5,0 11,0 16,0 11,0 22,-3 28,-8 4,-6 7,-14 7,-25 0,-10 -3,-15 -7,-21 -6,-5 -14,-8 -25,-8 -8,0 -14,0 -19,0l0 62 0 0 0 0zm8 -54c3,-2 6,-2 11,-2 16,0 25,11 25,23 0,17 -9,28 -28,28 -2,0 -5,0 -8,0l0 -49 0 0 0 0zm62 54c3,0 5,0 5,-5 0,-3 -2,-6 -5,-6 -3,0 -5,3 -5,6 0,5 2,5 5,5z"/>
   </g>
  </g>
 </g>
</svg>
